<svg width="250" height="250" viewBox="0 0 250 250" fill="none" xmlns="http://www.w3.org/2000/svg">
<rect width="250" height="250" rx="42" fill="black"/>
<path d="M122.882 166.428L122.882 202.507C122.882 205.606 119.511 207.528 116.845 205.95L47.9274 165.162C46.7108 164.442 45.9646 163.133 45.9646 161.72L45.9646 130.563C45.9646 127.561 49.1483 125.629 51.8112 127.015L120.729 162.88C122.052 163.568 122.882 164.936 122.882 166.428Z" fill="url(#paint0_linear_2603_32)"/>
<g filter="url(#filter0_i_2603_32)">
<path d="M88.2269 99.6797L119.473 117.719C122.156 119.269 122.135 123.149 119.435 124.669L49.6531 163.959C48.4213 164.653 46.9149 164.645 45.6906 163.938L18.7079 148.359C16.1082 146.858 16.0267 143.135 18.5583 141.522L84.0773 99.7705C85.3354 98.9688 86.935 98.9338 88.2269 99.6797Z" fill="#D9E2FC"/>
</g>
<path d="M46.0638 82.9601L45.8566 49.2421C45.8328 45.3691 50.0315 42.9408 53.3766 44.8929L120.536 84.0849C122.063 84.9755 123.005 86.6056 123.016 88.3726L123.194 117.311C123.217 121.063 119.252 123.503 115.913 121.791L48.7829 87.3788C47.1235 86.5282 46.0753 84.8248 46.0638 82.9601Z" fill="url(#paint1_linear_2603_32)"/>
<path d="M127.118 166.827L127.118 202.907C127.118 206.005 130.489 207.927 133.155 206.349L202.073 165.561C203.289 164.841 204.035 163.533 204.035 162.119L204.035 130.962C204.035 127.96 200.852 126.028 198.189 127.414L129.271 163.279C127.948 163.968 127.118 165.336 127.118 166.827Z" fill="url(#paint2_linear_2603_32)"/>
<g filter="url(#filter1_i_2603_32)">
<path d="M161.773 100.077L130.527 118.116C127.844 119.666 127.865 123.546 130.565 125.066L200.347 164.356C201.579 165.05 203.085 165.042 204.309 164.335L231.292 148.756C233.892 147.255 233.973 143.532 231.442 141.919L165.923 100.167C164.665 99.3657 163.065 99.3307 161.773 100.077Z" fill="#D9E2FC"/>
</g>
<path d="M203.936 83.3561L204.143 49.6381C204.167 45.7651 199.968 43.3368 196.623 45.2889L129.463 84.4809C127.937 85.3715 126.994 87.0016 126.984 88.7686L126.806 117.707C126.783 121.459 130.747 123.899 134.086 122.187L201.217 87.7748C202.876 86.9242 203.924 85.2208 203.936 83.3561Z" fill="url(#paint3_linear_2603_32)"/>
<defs>
<filter id="filter0_i_2603_32" x="16.7079" y="99.1438" width="104.765" height="69.3298" filterUnits="userSpaceOnUse" color-interpolation-filters="sRGB">
<feFlood flood-opacity="0" result="BackgroundImageFix"/>
<feBlend mode="normal" in="SourceGraphic" in2="BackgroundImageFix" result="shape"/>
<feColorMatrix in="SourceAlpha" type="matrix" values="0 0 0 0 0 0 0 0 0 0 0 0 0 0 0 0 0 0 127 0" result="hardAlpha"/>
<feOffset dy="4"/>
<feGaussianBlur stdDeviation="2"/>
<feComposite in2="hardAlpha" operator="arithmetic" k2="-1" k3="1"/>
<feColorMatrix type="matrix" values="0 0 0 0 0 0 0 0 0 0 0 0 0 0 0 0 0 0 0.25 0"/>
<feBlend mode="normal" in2="shape" result="effect1_innerShadow_2603_32"/>
</filter>
<filter id="filter1_i_2603_32" x="128.527" y="99.5408" width="104.765" height="69.3298" filterUnits="userSpaceOnUse" color-interpolation-filters="sRGB">
<feFlood flood-opacity="0" result="BackgroundImageFix"/>
<feBlend mode="normal" in="SourceGraphic" in2="BackgroundImageFix" result="shape"/>
<feColorMatrix in="SourceAlpha" type="matrix" values="0 0 0 0 0 0 0 0 0 0 0 0 0 0 0 0 0 0 127 0" result="hardAlpha"/>
<feOffset dy="4"/>
<feGaussianBlur stdDeviation="2"/>
<feComposite in2="hardAlpha" operator="arithmetic" k2="-1" k3="1"/>
<feColorMatrix type="matrix" values="0 0 0 0 0 0 0 0 0 0 0 0 0 0 0 0 0 0 0.25 0"/>
<feBlend mode="normal" in2="shape" result="effect1_innerShadow_2603_32"/>
</filter>
<linearGradient id="paint0_linear_2603_32" x1="84.4235" y1="123.972" x2="84.4235" y2="209.523" gradientUnits="userSpaceOnUse">
<stop stop-color="#C084FC"/>
<stop offset="0.5" stop-color="#4C52BB"/>
<stop offset="1" stop-color="#3B82F6"/>
</linearGradient>
<linearGradient id="paint1_linear_2603_32" x1="84.2608" y1="40.2366" x2="84.7866" y2="125.786" gradientUnits="userSpaceOnUse">
<stop stop-color="#3B82F6"/>
<stop offset="0.487015" stop-color="#4F46E5"/>
<stop offset="1" stop-color="#C084FC"/>
</linearGradient>
<linearGradient id="paint2_linear_2603_32" x1="165.576" y1="124.371" x2="165.576" y2="209.922" gradientUnits="userSpaceOnUse">
<stop stop-color="#C084FC"/>
<stop offset="0.5" stop-color="#4C52BB"/>
<stop offset="1" stop-color="#3B82F6"/>
</linearGradient>
<linearGradient id="paint3_linear_2603_32" x1="165.739" y1="40.6326" x2="165.213" y2="126.182" gradientUnits="userSpaceOnUse">
<stop stop-color="#3B82F6"/>
<stop offset="0.487015" stop-color="#4F46E5"/>
<stop offset="1" stop-color="#C084FC"/>
</linearGradient>
</defs>
</svg>
