<svg width="46" height="34" viewBox="0 0 46 34" fill="none" xmlns="http://www.w3.org/2000/svg">
<path d="M21.25 25.1964L21.25 34L6.375 25.1964L6.375 17.4554L21.25 25.1964Z" fill="#7EA0F6" fill-opacity="0.77"/>
<g filter="url(#filter0_i_223_76)">
<path d="M14.1415 12.5223L21.7656 16.9241L6.70401 25.4044L4.28878e-05 21.5339L14.1415 12.5223Z" fill="#D9E2FC"/>
<path d="M14.1415 12.5223L21.7656 16.9241L6.70401 25.4044L4.28878e-05 21.5339L14.1415 12.5223Z" stroke="black"/>
</g>
<path d="M7.09735 8.79834L7.40094 0L21.9635 9.3113L21.6966 17.0478L7.09735 8.79834Z" fill="#8EA7E8"/>
<path d="M24.0885 25.1964L24.0885 34L38.9635 25.1964L38.9635 17.4554L24.0885 25.1964Z" fill="#7EA0F6" fill-opacity="0.77"/>
<g filter="url(#filter1_i_223_76)">
<path d="M31.1971 12.5223L23.5729 16.9241L38.6346 25.4044L45.3385 21.5339L31.1971 12.5223Z" fill="#D9E2FC"/>
<path d="M31.1971 12.5223L23.5729 16.9241L38.6346 25.4044L45.3385 21.5339L31.1971 12.5223Z" stroke="black"/>
</g>
<path d="M38.2412 8.79834L37.9376 0L23.3751 9.3113L23.642 17.0478L38.2412 8.79834Z" fill="#8EA7E8"/>
<defs>
<filter id="filter0_i_223_76" x="6.10352e-05" y="12.5223" width="21.7656" height="16.8821" filterUnits="userSpaceOnUse" color-interpolation-filters="sRGB">
<feFlood flood-opacity="0" result="BackgroundImageFix"/>
<feBlend mode="normal" in="SourceGraphic" in2="BackgroundImageFix" result="shape"/>
<feColorMatrix in="SourceAlpha" type="matrix" values="0 0 0 0 0 0 0 0 0 0 0 0 0 0 0 0 0 0 127 0" result="hardAlpha"/>
<feOffset dy="4"/>
<feGaussianBlur stdDeviation="2"/>
<feComposite in2="hardAlpha" operator="arithmetic" k2="-1" k3="1"/>
<feColorMatrix type="matrix" values="0 0 0 0 0 0 0 0 0 0 0 0 0 0 0 0 0 0 0.25 0"/>
<feBlend mode="normal" in2="shape" result="effect1_innerShadow_223_76"/>
</filter>
<filter id="filter1_i_223_76" x="23.5729" y="12.5223" width="21.7656" height="16.8821" filterUnits="userSpaceOnUse" color-interpolation-filters="sRGB">
<feFlood flood-opacity="0" result="BackgroundImageFix"/>
<feBlend mode="normal" in="SourceGraphic" in2="BackgroundImageFix" result="shape"/>
<feColorMatrix in="SourceAlpha" type="matrix" values="0 0 0 0 0 0 0 0 0 0 0 0 0 0 0 0 0 0 127 0" result="hardAlpha"/>
<feOffset dy="4"/>
<feGaussianBlur stdDeviation="2"/>
<feComposite in2="hardAlpha" operator="arithmetic" k2="-1" k3="1"/>
<feColorMatrix type="matrix" values="0 0 0 0 0 0 0 0 0 0 0 0 0 0 0 0 0 0 0.25 0"/>
<feBlend mode="normal" in2="shape" result="effect1_innerShadow_223_76"/>
</filter>
</defs>
</svg>
